<svg data-v-0dd9719b="" version="1.0" xmlns="http://www.w3.org/2000/svg" xmlns:xlink="http://www.w3.org/1999/xlink" width="100%" height="100%" viewBox="0 0 340.000000 250.000000" preserveAspectRatio="xMidYMid meet" color-interpolation-filters="sRGB" style="margin: auto;"> <rect data-v-0dd9719b="" x="0" y="0" width="100%" height="100%" fill="#ffffff" fill-opacity="1" class="background"></rect> <rect data-v-0dd9719b="" x="0" y="0" width="100%" height="100%" fill="url(#watermark)" fill-opacity="1" class="watermarklayer"></rect> <g data-v-0dd9719b="" class="iconmbgsvg" transform="translate(83.08930991172791,86.33343505859375)"><g fill="#251f39" hollow-target="text"><g transform="translate(11.910690307617188,0)" mask="url(#80f87366-7f8b-497e-8c27-ab8877de4cd7)"><g><rect fill="#251f39" fill-opacity="0" stroke-width="2" x="0" y="0" width="150" height="26.52942112803099" class="image-rect"></rect> <svg filter="url(#colors5714693507)" x="0" y="0" width="150" height="26.52942112803099" filtersec="colorsf4682584288" class="image-svg-svg primary" style="overflow: visible;"><svg xmlns="http://www.w3.org/2000/svg" xmlns:xlink="http://www.w3.org/1999/xlink" xml:space="preserve" version="1.1" viewBox="0 0.00516510009765625 238 42.093360900878906" x="0px" y="0px" fill-rule="evenodd" clip-rule="evenodd"><defs></defs><g><path d="M238 2c-100,100 -129,-27 -238,40 90,-102 120,22 238,-40z"></path></g></svg></svg> <defs><filter id="colors5714693507"><feColorMatrix type="matrix" values="0 0 0 0 0.90625  0 0 0 0 0.2421875  0 0 0 0 0.1796875  0 0 0 1 0" class="icon-fecolormatrix"></feColorMatrix></filter> <filter id="colorsf4682584288"><feColorMatrix type="matrix" values="0 0 0 0 0.99609375  0 0 0 0 0.99609375  0 0 0 0 0.99609375  0 0 0 1 0" class="icon-fecolormatrix"></feColorMatrix></filter> <filter id="colorsb6718129284"><feColorMatrix type="matrix" values="0 0 0 0 0  0 0 0 0 0  0 0 0 0 0  0 0 0 1 0" class="icon-fecolormatrix"></feColorMatrix></filter></defs></g></g> <g transform="translate(0,32.196285247802734)"><g data-gra="path-name" fill-rule="" class="tp-name" transform="translate(0,0)"><g transform="scale(0.9199999999999999)"><g><path d="M24.01 0L16.3 0 13.97689951349576-21.59 13.79689951349576-21.59Q13.255337849792117-16.08 12.715777288824214-13.02L12.715777288824214-13.02 10.42 0 3.24 0 8.52628288163978-29.98 19.31628288163978-29.98 21.814044732163648-8.7 21.984044732163646-8.7 31.866282881639776-29.98 42.67628288163978-29.98 37.39 0 29.94 0 32.258699796316314-13.15Q32.43855331663895-14.17 32.68896204252453-15.42 32.939370768410114-16.67 34.04984643426742-21.55L34.04984643426742-21.55 33.85984643426742-21.55 24.01 0ZM51.99 0L43.85 0 49.13628288163978-29.98 57.27628288163978-29.98 51.99 0ZM70.54372735952936-10.91L68.49372735952934-10.91 66.57 0 58.47 0 63.75628288163978-29.98 73.57628288163978-29.98Q85.79628288163978-29.98 84.23402583256279-21.12L84.23402583256279-21.12Q83.31536226307168-15.91 77.73283036805256-13.06L77.73283036805256-13.06 84.16 0 74.98 0 70.54372735952936-10.91ZM70.77539848989689-23.85L69.5675586720439-17 71.08755867204391-17Q75.3275586720439-17 75.98878484970065-20.75L75.98878484970065-20.75Q76.53539848989689-23.85 72.3753984898969-23.85L72.3753984898969-23.85 70.77539848989689-23.85ZM114.15 0L105.29 0 104.80095763158158-5.62 95.06095763158157-5.62 92.55 0 83.65 0 98.73920538913188-30.11 109.54920538913187-30.11 114.15 0ZM97.91176878348578-12.26L104.29176878348578-12.26 103.87106079837852-17.19Q103.71023704674039-18.83 103.5186871965824-21.43 103.32890061623151-24.04 103.32638683462498-25.16L103.32638683462498-25.16Q102.95300677468818-24.12 101.98982202098786-21.72 101.02663726728755-19.32 97.91176878348578-12.26L97.91176878348578-12.26ZM134.93129233144023-23.77L134.93129233144023-23.77Q132.04129233144022-23.77 130.00339738716116-21.4 127.96550244288208-19.03 127.23198220313488-14.87L127.23198220313488-14.87Q125.70499055019957-6.21 132.28499055019955-6.21L132.28499055019955-6.21Q134.27499055019956-6.21 136.2337336593963-6.77 138.20071349878597-7.32 140.22824854373857-8.1L140.22824854373857-8.1 139.0204087258856-1.25Q134.96770593790953 0.41 130.23770593790954 0.41L130.23770593790954 0.41Q123.44770593790953 0.41 120.52243424190088-3.53 117.59539927608515-7.46 118.90903528236322-14.91L118.90903528236322-14.91Q119.72895574265758-19.56 122.10138998455845-23.09 124.48382422645935-26.62 128.10884548980542-28.52 131.73210348334442-30.41 136.1821034833444-30.41L136.1821034833444-30.41Q141.04210348334442-30.41 145.10005355404957-28.3L145.10005355404957-28.3 141.49508741712955-21.92Q139.97262246208214-22.7 138.40783903166474-23.24 136.8312923314402-23.77 134.93129233144023-23.77ZM164.29 0L144.64 0 149.92628288163976-29.98 158.0262828816398-29.98 153.89317845383337-6.54 165.44317845383335-6.54 164.29 0ZM188.05375807267586-6.6L186.89 0 169.09 0 174.37628288163978-29.98 192.17628288163976-29.98 191.03015750703474-23.48 181.33015750703476-23.48 180.4978941580908-18.76 189.47789415809078-18.76 188.33176878348576-12.26 179.35176878348577-12.26 178.35375807267587-6.6 188.05375807267586-6.6Z" transform="translate(-3.240000009536743, 30.40999984741211)"></path></g> <!----> <!----> <!----> <!----> <!----> <!----> <!----></g></g> <g data-gra="path-slogan" fill-rule="" class="tp-slogan" fill="#251F39" transform="translate(43.025238037109375,31.354400634765625)"><!----> <!----> <g transform="scale(1, 1)"><g transform="scale(1.3200000000000003)"><path d="M8.37-7.11L8.37-7.11L7.11-7.11Q7-9.02 4.59-9.13L4.59-9.13Q2.35-9.08 2.35-7.38L2.35-7.38Q2.35-6.29 3.55-6.13L3.55-6.13L6.40-5.47Q8.64-4.92 8.64-2.73L8.64-2.73Q8.59 0.05 4.70 0.16L4.70 0.16Q2.57 0.16 1.70-0.71L1.70-0.71Q0.60-1.53 0.66-3.23L0.66-3.23L1.97-3.23Q2.02-0.93 4.70-0.88L4.70-0.88Q7.33-0.93 7.38-2.57L7.38-2.57Q7.60-3.94 5.20-4.38L5.20-4.38L3.12-4.81Q0.98-5.41 0.98-7.22L0.98-7.22Q1.15-10.17 4.48-10.28L4.48-10.28Q8.26-10.28 8.37-7.11ZM12.34-10.01L13.70-10.01L13.70-1.20L18.79-1.20L18.79 0L12.34 0L12.34-10.01ZM30.03-4.98L30.03-4.98Q29.81-8.91 26.53-9.13L26.53-9.13Q23.20-8.97 23.03-4.98L23.03-4.98Q23.20-1.09 26.53-0.93L26.53-0.93Q29.81-1.15 30.03-4.98ZM31.40-4.98L31.40-4.98Q31.07 0 26.53 0.16L26.53 0.16Q21.94 0 21.61-4.98L21.61-4.98Q21.88-10.17 26.53-10.28L26.53-10.28Q31.07-10.12 31.40-4.98ZM42.48-4.21L39.41-4.21L39.41-5.36L43.79-5.36L43.79 0L42.91 0L42.59-1.26Q41.44 0.11 39.30 0.16L39.30 0.16Q37.28 0.16 36.19-0.88L36.19-0.88Q34.55-2.41 34.60-5.09L34.60-5.09Q34.98-10.06 39.36-10.28L39.36-10.28Q43.08-10.06 43.63-7L43.63-7L42.31-7Q41.77-9.08 39.30-9.13L39.30-9.13Q36.19-8.91 36.02-5.03L36.02-5.03Q36.02-0.88 39.36-0.88L39.36-0.88Q40.56-0.88 41.44-1.53L41.44-1.53Q42.53-2.41 42.48-4.21L42.48-4.21ZM54.48 0L53.50-2.90L49.45-2.90L48.41 0L47.05 0L50.82-10.01L52.35-10.01L55.96 0L54.48 0ZM51.48-8.53L49.89-4.10L53.01-4.10L51.53-8.53L51.48-8.53ZM60.80-10.01L65.84-1.91L65.84-10.01L67.15-10.01L67.15 0L65.62 0L60.53-8.09L60.48-8.09L60.48 0L59.16 0L59.16-10.01L60.80-10.01Z" transform="translate(-0.65625, 10.28125)"></path></g></g></g></g></g></g><mask id="80f87366-7f8b-497e-8c27-ab8877de4cd7"><g fill="white"><g><rect fill-opacity="1" stroke-width="2" x="0" y="0" width="150" height="26.52942112803099" class="image-rect"></rect> <svg x="0" y="0" width="150" height="26.52942112803099" class="image-svg-svg primary" style="overflow: visible;" filter="url(#colorsf4682584288)"><svg xmlns="http://www.w3.org/2000/svg" xmlns:xlink="http://www.w3.org/1999/xlink" xml:space="preserve" version="1.1" viewBox="0 0.00516510009765625 238 42.093360900878906" x="0px" y="0px" fill-rule="evenodd" clip-rule="evenodd"><defs></defs><g><path d="M238 2c-100,100 -129,-27 -238,40 90,-102 120,22 238,-40z"></path></g></svg></svg> <defs>  </defs></g></g> <g transform="translate(-11.910690307617188,32.196285247802734)" fill="black" stroke="black" stroke-width="6" stroke-linejoin="round"><g data-gra="path-name" fill-rule="" class="tp-name" transform="translate(0,0)"><g transform="scale(0.9199999999999999)"><g><path d="M24.01 0L16.3 0 13.97689951349576-21.59 13.79689951349576-21.59Q13.255337849792117-16.08 12.715777288824214-13.02L12.715777288824214-13.02 10.42 0 3.24 0 8.52628288163978-29.98 19.31628288163978-29.98 21.814044732163648-8.7 21.984044732163646-8.7 31.866282881639776-29.98 42.67628288163978-29.98 37.39 0 29.94 0 32.258699796316314-13.15Q32.43855331663895-14.17 32.68896204252453-15.42 32.939370768410114-16.67 34.04984643426742-21.55L34.04984643426742-21.55 33.85984643426742-21.55 24.01 0ZM51.99 0L43.85 0 49.13628288163978-29.98 57.27628288163978-29.98 51.99 0ZM70.54372735952936-10.91L68.49372735952934-10.91 66.57 0 58.47 0 63.75628288163978-29.98 73.57628288163978-29.98Q85.79628288163978-29.98 84.23402583256279-21.12L84.23402583256279-21.12Q83.31536226307168-15.91 77.73283036805256-13.06L77.73283036805256-13.06 84.16 0 74.98 0 70.54372735952936-10.91ZM70.77539848989689-23.85L69.5675586720439-17 71.08755867204391-17Q75.3275586720439-17 75.98878484970065-20.75L75.98878484970065-20.75Q76.53539848989689-23.85 72.3753984898969-23.85L72.3753984898969-23.85 70.77539848989689-23.85ZM114.15 0L105.29 0 104.80095763158158-5.62 95.06095763158157-5.62 92.55 0 83.65 0 98.73920538913188-30.11 109.54920538913187-30.11 114.15 0ZM97.91176878348578-12.26L104.29176878348578-12.26 103.87106079837852-17.19Q103.71023704674039-18.83 103.5186871965824-21.43 103.32890061623151-24.04 103.32638683462498-25.16L103.32638683462498-25.16Q102.95300677468818-24.12 101.98982202098786-21.72 101.02663726728755-19.32 97.91176878348578-12.26L97.91176878348578-12.26ZM134.93129233144023-23.77L134.93129233144023-23.77Q132.04129233144022-23.77 130.00339738716116-21.4 127.96550244288208-19.03 127.23198220313488-14.87L127.23198220313488-14.87Q125.70499055019957-6.21 132.28499055019955-6.21L132.28499055019955-6.21Q134.27499055019956-6.21 136.2337336593963-6.77 138.20071349878597-7.32 140.22824854373857-8.1L140.22824854373857-8.1 139.0204087258856-1.25Q134.96770593790953 0.41 130.23770593790954 0.41L130.23770593790954 0.41Q123.44770593790953 0.41 120.52243424190088-3.53 117.59539927608515-7.46 118.90903528236322-14.91L118.90903528236322-14.91Q119.72895574265758-19.56 122.10138998455845-23.09 124.48382422645935-26.62 128.10884548980542-28.52 131.73210348334442-30.41 136.1821034833444-30.41L136.1821034833444-30.41Q141.04210348334442-30.41 145.10005355404957-28.3L145.10005355404957-28.3 141.49508741712955-21.92Q139.97262246208214-22.7 138.40783903166474-23.24 136.8312923314402-23.77 134.93129233144023-23.77ZM164.29 0L144.64 0 149.92628288163976-29.98 158.0262828816398-29.98 153.89317845383337-6.54 165.44317845383335-6.54 164.29 0ZM188.05375807267586-6.6L186.89 0 169.09 0 174.37628288163978-29.98 192.17628288163976-29.98 191.03015750703474-23.48 181.33015750703476-23.48 180.4978941580908-18.76 189.47789415809078-18.76 188.33176878348576-12.26 179.35176878348577-12.26 178.35375807267587-6.6 188.05375807267586-6.6Z" transform="translate(-3.240000009536743, 30.40999984741211)"></path></g>       </g></g> <g data-gra="path-slogan" fill-rule="" class="tp-slogan" transform="translate(43.025238037109375,31.354400634765625)">  <g transform="scale(1, 1)"><g transform="scale(1.3200000000000003)"><path d="M8.37-7.11L8.37-7.11L7.11-7.11Q7-9.02 4.59-9.13L4.59-9.13Q2.35-9.08 2.35-7.38L2.35-7.38Q2.35-6.29 3.55-6.13L3.55-6.13L6.40-5.47Q8.64-4.92 8.64-2.73L8.64-2.73Q8.59 0.05 4.70 0.16L4.70 0.16Q2.57 0.16 1.70-0.71L1.70-0.71Q0.60-1.53 0.66-3.23L0.66-3.23L1.97-3.23Q2.02-0.93 4.70-0.88L4.70-0.88Q7.33-0.93 7.38-2.57L7.38-2.57Q7.60-3.94 5.20-4.38L5.20-4.38L3.12-4.81Q0.98-5.41 0.98-7.22L0.98-7.22Q1.15-10.17 4.48-10.28L4.48-10.28Q8.26-10.28 8.37-7.11ZM12.34-10.01L13.70-10.01L13.70-1.20L18.79-1.20L18.79 0L12.34 0L12.34-10.01ZM30.03-4.98L30.03-4.98Q29.81-8.91 26.53-9.13L26.53-9.13Q23.20-8.97 23.03-4.98L23.03-4.98Q23.20-1.09 26.53-0.93L26.53-0.93Q29.81-1.15 30.03-4.98ZM31.40-4.98L31.40-4.98Q31.07 0 26.53 0.16L26.53 0.16Q21.94 0 21.61-4.98L21.61-4.98Q21.88-10.17 26.53-10.28L26.53-10.28Q31.07-10.12 31.40-4.98ZM42.48-4.21L39.41-4.21L39.41-5.36L43.79-5.36L43.79 0L42.91 0L42.59-1.26Q41.44 0.11 39.30 0.16L39.30 0.16Q37.28 0.16 36.19-0.88L36.19-0.88Q34.55-2.41 34.60-5.09L34.60-5.09Q34.98-10.06 39.36-10.28L39.36-10.28Q43.08-10.06 43.63-7L43.63-7L42.31-7Q41.77-9.08 39.30-9.13L39.30-9.13Q36.19-8.91 36.02-5.03L36.02-5.03Q36.02-0.88 39.36-0.88L39.36-0.88Q40.56-0.88 41.44-1.53L41.44-1.53Q42.53-2.41 42.48-4.21L42.48-4.21ZM54.48 0L53.50-2.90L49.45-2.90L48.41 0L47.05 0L50.82-10.01L52.35-10.01L55.96 0L54.48 0ZM51.48-8.53L49.89-4.10L53.01-4.10L51.53-8.53L51.48-8.53ZM60.80-10.01L65.84-1.91L65.84-10.01L67.15-10.01L67.15 0L65.62 0L60.53-8.09L60.48-8.09L60.48 0L59.16 0L59.16-10.01L60.80-10.01Z" transform="translate(-0.65625, 10.28125)"></path></g></g></g></g></mask><defs v-gra="od"></defs></svg>